<?xml version="1.0" encoding="UTF-8" standalone="no"?>
<!-- Created with Inkscape (http://www.inkscape.org/) -->

<svg
   width="210mm"
   height="297mm"
   viewBox="0 0 210 297"
   version="1.1"
   id="svg5"
   xml:space="preserve"
   inkscape:export-filename="corrective.png"
   inkscape:export-xdpi="106.57"
   inkscape:export-ydpi="106.57"
   inkscape:version="1.2 (dc2aedaf03, 2022-05-15)"
   sodipodi:docname="Resources.svg"
   xmlns:inkscape="http://www.inkscape.org/namespaces/inkscape"
   xmlns:sodipodi="http://sodipodi.sourceforge.net/DTD/sodipodi-0.dtd"
   xmlns="http://www.w3.org/2000/svg"
   xmlns:svg="http://www.w3.org/2000/svg"><sodipodi:namedview
     id="namedview7"
     pagecolor="#505050"
     bordercolor="#eeeeee"
     borderopacity="1"
     inkscape:showpageshadow="0"
     inkscape:pageopacity="0"
     inkscape:pagecheckerboard="0"
     inkscape:deskcolor="#505050"
     inkscape:document-units="mm"
     showgrid="false"
     inkscape:zoom="0.5946522"
     inkscape:cx="43.723037"
     inkscape:cy="324.55946"
     inkscape:window-width="1366"
     inkscape:window-height="705"
     inkscape:window-x="-8"
     inkscape:window-y="-8"
     inkscape:window-maximized="1"
     inkscape:current-layer="layer1" /><defs
     id="defs2"><clipPath
       clipPathUnits="userSpaceOnUse"
       id="clipPath467"><rect
         style="fill:none;stroke:#ff0000;stroke-width:0.465;stroke-linecap:round;stroke-linejoin:round;paint-order:stroke fill markers;stop-color:#000000"
         id="rect469"
         width="54.035751"
         height="54.114403"
         x="9.2025948"
         y="81.643539" /></clipPath><clipPath
       clipPathUnits="userSpaceOnUse"
       id="clipPath473"><rect
         style="fill:none;stroke:#ff0000;stroke-width:0.465;stroke-linecap:round;stroke-linejoin:round;paint-order:stroke fill markers;stop-color:#000000"
         id="rect475"
         width="51.390335"
         height="53.83749"
         x="117.68609"
         y="79.64389" /></clipPath></defs><g
     inkscape:label="Capa 1"
     inkscape:groupmode="layer"
     id="layer1"><path
       style="fill:#000000;stroke-width:1"
       d="m 23.816467,82.142153 c -1.652389,-0.34375 -2.956979,-1.04421 -4.130514,-2.21774 -1.203494,-1.20349 -1.92212,-2.57245 -2.245659,-4.27788 -0.141071,-0.74361 -0.142164,-0.87577 -0.14227,-17.202479 l -1.07e-4,-16.453121 0.165311,-0.791727 c 0.173691,-0.831862 0.376938,-1.433509 0.712728,-2.109796 0.917902,-1.848675 2.691536,-3.401703 4.590537,-4.019563 1.10011,-0.357932 1.2515,-0.377561 3.222823,-0.417858 l 1.896933,-0.03878 0.03848,-1.276118 c 0.04287,-1.421703 0.08453,-1.584705 0.532167,-2.08238 0.332308,-0.369454 0.993763,-0.676795 1.456591,-0.676795 0.71254,0 1.468323,0.4671 1.817526,1.123296 0.140137,0.263336 0.158059,0.414479 0.18988,1.601389 l 0.03514,1.310608 4.535393,0.01774 4.535393,0.01774 8.21e-4,-1.086921 c 8.97e-4,-1.190847 0.0742,-1.604967 0.365858,-2.066989 0.330962,-0.52428 1.045261,-0.916865 1.668213,-0.916865 0.603427,0 1.326026,0.386485 1.656624,0.886053 0.305648,0.461864 0.376713,0.850169 0.37752,2.062815 l 7.47e-4,1.120915 h 4.581649 4.581649 l 0.02272,-1.258874 c 0.02199,-1.217984 0.02902,-1.271698 0.216621,-1.653728 0.456634,-0.929895 1.534695,-1.377844 2.465144,-1.0243 0.692917,0.263287 1.1155,0.741627 1.284205,1.453645 0.05302,0.223762 0.09033,0.81089 0.09097,1.431321 l 0.0011,1.051936 1.67275,0.0014 c 1.836366,0.0015 2.266829,0.04344 3.190555,0.310888 2.148038,0.621914 3.977859,2.157797 4.969727,4.171405 0.32766,0.665186 0.549385,1.327926 0.712848,2.13072 0.142279,0.698758 0.145921,0.873879 0.145921,7.016689 v 6.30004 l -0.176032,0.39859 c -0.214503,0.48571 -0.505896,0.80082 -0.962127,1.04042 -0.282062,0.14813 -0.439961,0.18156 -0.866698,0.18353 -0.447235,0.002 -0.580027,-0.0273 -0.929253,-0.20576 -0.438198,-0.22387 -0.834676,-0.66915 -1.001646,-1.12493 -0.07421,-0.20257 -0.100714,-1.54078 -0.132081,-6.66851 -0.03869,-6.32545 -0.04128,-6.420384 -0.185632,-6.79447 -0.251618,-0.65209 -0.514197,-1.052477 -1.018664,-1.553283 -0.513362,-0.509636 -0.974996,-0.792901 -1.660293,-1.01878 -0.351961,-0.116009 -0.664117,-0.141267 -2.086625,-0.168839 l -1.67275,-0.03242 v 1.061763 c 0,0.729827 -0.03295,1.188252 -0.105384,1.466361 -0.189194,0.726366 -0.697281,1.237585 -1.446651,1.45557 -0.357772,0.104073 -0.469982,0.108965 -0.827753,0.03609 -0.771984,-0.157253 -1.363117,-0.691487 -1.589066,-1.436111 -0.0689,-0.22706 -0.09966,-0.671907 -0.100182,-1.448603 l -7.46e-4,-1.120915 H 49.68375 45.096623 l -8.21e-4,1.086425 c -5.52e-4,0.699142 -0.03454,1.213058 -0.0954,1.44166 -0.202122,0.759117 -0.803399,1.316545 -1.593772,1.477544 -0.989763,0.201615 -2.00716,-0.465639 -2.274403,-1.491656 -0.0723,-0.277581 -0.105383,-0.735856 -0.105383,-1.459782 V 38.64755 l -4.535393,0.01774 -4.535393,0.01774 -0.03514,1.310607 c -0.03946,1.471997 -0.08279,1.625374 -0.597077,2.113516 -1.001616,0.950704 -2.540087,0.699003 -3.183169,-0.520781 -0.178784,-0.339113 -0.185888,-0.395528 -0.207976,-1.651565 l -0.02287,-1.300459 -1.632792,0.03258 c -1.381195,0.02756 -1.696566,0.05358 -2.046668,0.168859 -0.684985,0.225544 -1.146818,0.508893 -1.660293,1.01864 -0.503285,0.499632 -0.764641,0.897606 -1.020067,1.553283 l -0.147794,0.379387 -0.01808,16.481117 c -0.02004,18.260469 -0.05544,16.812759 0.435641,17.817279 0.158701,0.32463 0.395017,0.65206 0.677533,0.93878 0.466217,0.47315 0.810071,0.70122 1.501522,0.9959 l 0.438481,0.18687 8.380992,0.0368 c 5.833354,0.0256 8.445122,0.0599 8.591961,0.11269 0.381351,0.13714 0.613217,0.28489 0.867857,0.55301 0.315494,0.33219 0.4441,0.58693 0.527247,1.04441 0.170014,0.93539 -0.370174,1.88126 -1.265765,2.21634 -0.376334,0.1408 -0.459351,0.1421 -8.672153,0.13593 l -8.29218,-0.006 -0.758773,-0.15785 z m 32.006424,0.13754 c -0.03794,-0.012 -0.348346,-0.0604 -0.689794,-0.10754 -5.164759,-0.71272 -9.284267,-4.62304 -10.324413,-9.80014 -0.134196,-0.66793 -0.158081,-1.00323 -0.15917,-2.234419 -0.0013,-1.51354 0.04667,-1.94321 0.351289,-3.14379 1.061101,-4.18215 4.530841,-7.65189 8.712988,-8.71299 1.200587,-0.30462 1.630257,-0.35263 3.14379,-0.35129 1.231192,10e-4 1.566494,0.025 2.234427,0.15917 2.432599,0.48874 4.566178,1.62131 6.300739,3.34463 2.235859,2.22137 3.486086,5.07577 3.619091,8.26278 0.112596,2.697969 -0.800582,5.542989 -2.506592,7.809339 -0.461636,0.61326 -1.557969,1.71659 -2.182696,2.19663 -1.333071,1.02432 -2.989394,1.83957 -4.533346,2.23132 -0.812619,0.20618 -2.217484,0.37658 -3.069582,0.37231 -0.455264,-0.002 -0.858793,-0.014 -0.896731,-0.026 z m 2.929192,-4.24041 c 0.985622,-0.27313 1.763329,-0.61109 2.451198,-1.06519 1.823373,-1.2037 2.96399,-2.78953 3.554588,-4.942 0.177375,-0.64646 0.256084,-2.273749 0.14835,-3.067149 -0.157536,-1.16019 -0.643873,-2.4297 -1.334475,-3.48346 -0.391892,-0.59797 -1.559974,-1.76098 -2.169638,-2.16021 -1.790335,-1.17237 -3.913174,-1.65117 -5.855133,-1.3206 -1.753811,0.29855 -5.600214,0.95831 -4.516284,2.31002 3.518245,4.38743 0.150202,4.2036 -2.310022,4.51629 -1.955916,0.24859 0.148623,4.068279 1.320171,5.849599 0.407094,0.61898 1.565388,1.78506 2.160636,2.17517 0.974212,0.63847 2.260292,1.15187 3.311009,1.32175 0.208663,0.0337 0.907079,0.0494 1.552036,0.0349 0.912186,-0.0206 1.28702,-0.0581 1.687564,-0.16913 z m -2.665078,-6.08013 c -0.452592,-0.17402 -0.88539,-0.59241 -1.101791,-1.065089 l -0.168763,-0.36862 0.02036,-2.60821 c 0.0197,-2.52359 0.02521,-2.61715 0.169723,-2.88412 0.631297,-1.16622 2.10427,-1.43993 3.142698,-0.58397 0.138386,0.11407 0.338947,0.38525 0.44569,0.60263 0.187053,0.38091 0.195326,0.44265 0.228567,1.70583 l 0.03449,1.3106 0.758773,0.0385 c 0.520731,0.0264 0.828812,0.0755 0.982025,0.15649 0.348173,0.18398 0.695794,0.51851 0.900299,0.86638 0.166147,0.28262 0.187002,0.38759 0.186563,0.93901 -5.52e-4,0.71811 -0.124377,1.027229 -0.59391,1.482899 -0.518375,0.50307 -0.774378,0.5525 -2.839906,0.54839 -1.633786,-0.003 -1.842514,-0.0168 -2.164821,-0.14075 z m -26.667931,-0.6446 c -0.583161,-0.16718 -0.996422,-0.502819 -1.279251,-1.039009 -0.152682,-0.28945 -0.181927,-0.4336 -0.181927,-0.89673 0,-0.46404 0.02926,-0.60769 0.183929,-0.90294 0.651322,-1.24332 2.277228,-1.47697 3.237526,-0.46524 0.424985,0.44774 0.507205,0.66964 0.506944,1.36818 -2.07e-4,0.50446 -0.02813,0.67253 -0.149097,0.89673 -0.449893,0.833879 -1.457792,1.285619 -2.318124,1.039009 z m 8.754062,-0.0136 c -0.731133,-0.224539 -1.210916,-0.737179 -1.397479,-1.493179 -0.09908,-0.4015 -0.0989,-0.47755 0.0021,-0.87171 0.199614,-0.77917 0.675537,-1.26474 1.464829,-1.49452 1.046698,-0.30472 2.177131,0.41303 2.440394,1.5495 0.228509,0.98643 -0.447222,2.05313 -1.473759,2.326459 -0.439737,0.11708 -0.609757,0.11437 -1.036066,-0.0165 z m -8.893643,-8.811999 c -0.620788,-0.23134 -1.13472,-0.77901 -1.298354,-1.38356 -0.104671,-0.38672 -0.03897,-1.05453 0.137841,-1.40111 0.186419,-0.36541 0.54922,-0.73026 0.924505,-0.92973 0.391811,-0.20825 1.338703,-0.22254 1.705407,-0.0257 0.437481,0.23479 0.728463,0.50923 0.934743,0.88161 0.180481,0.32581 0.203417,0.43333 0.203417,0.95354 0,0.52044 -0.0229,0.62767 -0.203762,0.95418 -0.361615,0.65281 -0.899632,0.9849 -1.658681,1.0238 -0.305415,0.0157 -0.579231,-0.0112 -0.745116,-0.073 z m 8.846964,0.0343 c -0.281782,-0.0921 -0.717347,-0.39089 -0.918973,-0.63051 -0.851671,-1.01215 -0.564811,-2.47494 0.605584,-3.08806 0.295246,-0.15467 0.438901,-0.18393 0.902941,-0.18393 0.464039,0 0.607695,0.0293 0.902941,0.18393 1.455886,0.76268 1.452308,2.83128 -0.0062,3.59005 -0.301074,0.15663 -1.170181,0.23178 -1.486283,0.12852 z m -8.722662,-8.795725 c -0.848535,-0.26836 -1.388166,-0.9175 -1.463889,-1.76096 -0.142918,-1.59194 1.596838,-2.70136 2.981435,-1.90124 0.586752,0.33908 0.93686,0.88776 0.983071,1.54066 0.05451,0.77017 -0.19627,1.35334 -0.76438,1.77751 -0.535809,0.40005 -1.164931,0.52471 -1.736237,0.34403 z m 8.690867,-0.0275 c -0.699562,-0.24191 -1.19339,-0.81089 -1.342534,-1.54685 -0.281558,-1.38937 1.052601,-2.64925 2.431386,-2.29602 0.772732,0.19796 1.26826,0.70372 1.47983,1.51039 0.100825,0.38441 0.103133,0.48295 0.01948,0.83166 -0.182368,0.7602 -0.689355,1.30967 -1.404297,1.52199 -0.446138,0.13249 -0.755516,0.12696 -1.183863,-0.0212 z m 8.698127,-0.0469 c -0.458758,-0.1886 -0.876748,-0.55695 -1.097637,-0.96728 -0.118811,-0.22071 -0.148503,-0.39324 -0.148391,-0.86225 1.38e-4,-0.5017 0.02674,-0.63699 0.184436,-0.93743 0.302061,-0.57546 0.757713,-0.91421 1.417539,-1.05385 0.842163,-0.17823 1.722457,0.25491 2.141822,1.05385 0.157698,0.30044 0.184316,0.43573 0.184436,0.93743 1.38e-4,0.46811 -0.02981,0.64259 -0.148422,0.86535 -0.329981,0.61974 -1.167949,1.13718 -1.835527,1.13342 -0.159816,-9.1e-4 -0.474031,-0.0771 -0.698256,-0.16924 z m 8.880585,0.0432 c -0.971642,-0.33577 -1.547034,-1.31177 -1.337833,-2.26926 0.382475,-1.75055 2.548503,-2.2135 3.612985,-0.7722 0.283811,0.38427 0.419016,1.01517 0.3211,1.49834 -0.152343,0.75175 -0.696248,1.35862 -1.406774,1.56962 -0.443468,0.1317 -0.751557,0.12483 -1.189478,-0.0265 z"
       id="path477"
       sodipodi:nodetypes="cssscsssscssssscccssssscccsssssccsssscssccsssssscsssssscccccssscccsssscsssscsssscscsssccccscscssccssssscsssssssssssssccsscscssssscccssscccsssssscscscssscccssscssscccsssscssssssssscssssscccssssscsscssssss"
       inkscape:export-filename="preventive.png"
       inkscape:export-xdpi="98.190002"
       inkscape:export-ydpi="98.190002" /><path
       style="fill:#000000;stroke-width:1"
       d="m 90.311843,144.93676 c -0.18064,-0.0545 -0.32791,-0.16216 -0.43112,-0.31531 -0.14885,-0.22088 -0.15675,-0.29633 -0.15675,-1.49612 v -1.26352 l -0.20495,-0.23342 c -0.17532,-0.19969 -0.28748,-0.25077 -0.77602,-0.35347 -1.47601,-0.31029 -2.84717,-0.73871 -4.14267,-1.29441 -0.66987,-0.28734 -0.86099,-0.34198 -1.08913,-0.31138 -0.15219,0.0204 -0.31721,0.0707 -0.36671,0.11181 -0.0495,0.0411 -0.39728,0.4987 -0.77284,1.01693 -0.73547,1.01486 -0.94189,1.17979 -1.36347,1.08941 -0.11938,-0.0256 -0.76025,-0.43563 -1.42418,-0.91121 -0.66393,-0.47559 -1.36234,-0.97352 -1.55204,-1.10653 -1.2142,-0.85137 -1.53814,-1.14484 -1.59433,-1.44437 -0.0582,-0.31009 0.004,-0.43157 0.74174,-1.44824 0.34414,-0.47427 0.65273,-0.95655 0.68576,-1.07173 0.0796,-0.27753 -0.10052,-0.66222 -0.52374,-1.11858 -0.8324,-0.89757 -1.69754,-2.0761 -2.45027,-3.33789 -0.40596,-0.68049 -0.55561,-0.87375 -0.73442,-0.94846 -0.32489,-0.13575 -0.37222,-0.12803 -1.53962,0.25106 -1.15836,0.37616 -1.28798,0.39581 -1.5879,0.24071 -0.29862,-0.15442 -0.16657,0.18823 -1.51323,-3.9265 -0.61426,-1.87688 -0.61049,-1.88535 1.08888,-2.4452 1.10081,-0.36266 1.36325,-0.51426 1.48425,-0.85739 0.0242,-0.0687 -0.002,-0.64297 -0.058,-1.27612 -0.12834,-1.44742 -0.12855,-2.03503 -10e-4,-3.47815 0.0625,-0.70883 0.0783,-1.21463 0.0408,-1.3106 -0.12693,-0.32488 -0.34293,-0.44597 -1.44827,-0.81187 -1.71926,-0.56913 -1.7214,-0.57387 -1.10636,-2.45311 1.34666,-4.11472 1.21461,-3.77207 1.51323,-3.9265 0.29992,-0.15509 0.42954,-0.13544 1.5879,0.24072 0.58415,0.18969 1.13507,0.34489 1.22427,0.34489 0.34218,0 0.55456,-0.19567 0.95409,-0.87904 0.61103,-1.04512 1.50251,-2.29265 2.31522,-3.2399 0.40787,-0.47539 0.7605,-0.95048 0.78362,-1.05575 0.0616,-0.28048 -0.0814,-0.55532 -0.78204,-1.50342 -0.9195,-1.24421 -0.91445,-1.40825 0.0662,-2.15003 1.35971,-1.0285 3.59402,-2.592265 3.78582,-2.649654 0.43338,-0.129677 0.60358,-0.0058 1.31738,0.959204 0.36452,0.49279 0.7335,0.96521 0.81995,1.04982 0.29912,0.29277 0.54202,0.27521 1.43218,-0.10357 1.45867,-0.62069 2.74588,-1.03616 4.01753,-1.29671 1.14759,-0.235144 1.17255,-0.275699 1.1729,-1.905948 2.1e-4,-1.070985 0.0144,-1.216478 0.13799,-1.419222 0.0758,-0.124246 0.21936,-0.256936 0.31912,-0.294865 0.24323,-0.09248 5.3261,-0.09248 5.56933,0 0.0998,0.03793 0.24336,0.170619 0.31912,0.294865 0.12435,0.203962 0.13775,0.348271 0.13799,1.485789 l 2.7e-4,1.259886 0.22419,0.235305 c 0.20597,0.21619 0.30542,0.2531 1.22438,0.45443 1.17609,0.25766 2.712547,0.75301 3.716837,1.19829 1.09943,0.48746 1.22385,0.45902 1.8965,-0.43345 0.27497,-0.36483 0.60252,-0.81388 0.72787,-0.99787 0.26308,-0.38613 0.59354,-0.560494 0.92601,-0.488604 0.11937,0.02581 0.74187,0.423344 1.38333,0.883394 0.64145,0.46006 1.28269,0.91678 1.42498,1.01494 0.6063,0.41826 1.28733,0.92965 1.49504,1.12264 0.23091,0.21454 0.34065,0.54672 0.26224,0.79379 -0.0246,0.0775 -0.34137,0.55098 -0.70391,1.0521 -0.36255,0.50112 -0.68915,0.99711 -0.72578,1.1022 -0.0893,0.25608 0.10684,0.67394 0.53089,1.13119 0.8324,0.89758 1.69753,2.07611 2.45027,3.33789 0.40596,0.68049 0.55561,0.87376 0.73442,0.94847 0.32487,0.13574 0.37192,0.12804 1.53278,-0.25106 1.11799,-0.3651 1.2763,-0.39211 1.55466,-0.26529 0.24957,0.11372 0.37171,0.33287 0.62503,1.12156 0.12291,0.38267 0.47886,1.48089 0.79101,2.4405 0.37157,1.1423 0.55331,1.8014 0.52634,1.90885 -0.10401,0.41441 -0.33578,0.55917 -1.49272,0.93236 -1.10752,0.35724 -1.31953,0.47625 -1.45181,0.81496 -0.0386,0.0988 -0.0234,0.59241 0.0403,1.31061 0.0562,0.63367 0.10216,1.41597 0.10216,1.73845 0,0.32248 -0.046,1.10479 -0.10216,1.73846 -0.0637,0.71819 -0.0788,1.21182 -0.0403,1.3106 0.12727,0.32589 0.34084,0.44566 1.44602,0.81091 1.72152,0.56895 1.72476,0.57613 1.10944,2.45625 -1.34666,4.11473 -1.21461,3.77208 -1.51323,3.9265 -0.29994,0.1551 -0.42956,0.13545 -1.58792,-0.24071 -1.16955,-0.37979 -1.21425,-0.38701 -1.54362,-0.24939 -0.17547,0.0733 -0.30568,0.2296 -0.56032,0.67255 -0.75532,1.31385 -1.71624,2.65292 -2.56731,3.57764 -0.42949,0.46666 -0.64097,0.80223 -0.63903,1.01402 0.002,0.16663 0.19997,0.48918 0.88278,1.43486 0.34203,0.47369 0.58715,0.88455 0.60729,1.01791 0.0647,0.42822 -0.1092,0.59537 -2.21549,2.1296 -1.10022,0.8014 -2.10603,1.50211 -2.23514,1.55711 -0.20761,0.0884 -0.26741,0.0874 -0.51735,-0.009 -0.23892,-0.0926 -0.38421,-0.24975 -0.94003,-1.01692 -0.36158,-0.49909 -0.73767,-0.96734 -0.83575,-1.04057 -0.22308,-0.16655 -0.585,-0.18065 -0.89243,-0.0348 -1.24271,0.58971 -2.997917,1.16631 -4.477837,1.47102 -1.14879,0.23653 -1.17264,0.27546 -1.17264,1.91357 0,1.13412 -0.009,1.2132 -0.15676,1.43297 -0.25314,0.37564 -0.4265,0.39801 -3.08527,0.39801 -1.65116,0 -2.4638,-0.0253 -2.65416,-0.0827 z m 5.27537,-7.41553 c 1.00298,-0.17347 1.53871,-0.29466 2.27632,-0.51495 4.419347,-1.31988 8.172037,-4.478 10.270397,-8.64316 0.82613,-1.63986 1.29415,-3.11689 1.63659,-5.16503 0.19266,-1.15235 0.17852,-3.88623 -0.0262,-5.06998 -0.4947,-2.8601 -1.52441,-5.30958 -3.14621,-7.48426 -2.69725,-3.61677 -6.44386,-5.88697 -11.010867,-6.67187 -1.1859,-0.20381 -3.92281,-0.21921 -5.06998,-0.0285 -2.97612,0.49469 -5.43366,1.51271 -7.65671,3.17174 -3.61014,2.6942 -5.88854,6.45505 -6.67186,11.01292 -0.20382,1.1859 -0.21922,3.92281 -0.0285,5.06998 0.3344,2.01182 0.79714,3.46714 1.64196,5.16397 2.45743,4.93583 7.25639,8.39988 12.71515,9.17825 0.41732,0.0595 0.85189,0.12127 0.96571,0.13725 0.11382,0.016 0.90535,0.0182 1.75897,0.005 1.14631,-0.0178 1.75941,-0.06 2.3453,-0.1613 z m -3.43049,-6.41783 c -0.62512,-0.23207 -1.14508,-0.71132 -1.41705,-1.30608 -0.22854,-0.49979 -0.21501,-1.43247 0.0283,-1.9514 0.25496,-0.54375 0.60258,-0.89943 1.14513,-1.17168 0.42109,-0.2113 0.5237,-0.2341 1.05289,-0.23392 0.5208,2.1e-4 0.6374,0.0252 1.04342,0.22365 0.53222,0.26016 0.8979,0.63451 1.15459,1.18195 0.15442,0.32933 0.18168,0.48109 0.18118,1.00848 -4.8e-4,0.53697 -0.0263,0.67323 -0.19066,1.00892 -0.22679,0.46305 -0.75149,0.97496 -1.20496,1.17557 -0.47565,0.21042 -1.31817,0.24074 -1.79285,0.0645 z m 0.0255,-7.16564 c -0.0305,-0.0493 -0.32689,-1.6409 -0.56815,-3.05048 -0.0552,-0.32248 -0.14691,-0.85017 -0.20382,-1.17265 -0.0569,-0.32248 -0.15003,-0.85017 -0.20693,-1.17265 -0.0569,-0.32248 -0.15003,-0.85017 -0.20694,-1.17265 -0.0569,-0.32247 -0.15046,-0.85017 -0.20789,-1.17265 -0.0574,-0.32247 -0.1476,-0.83465 -0.20036,-1.13815 -0.10069,-0.57914 -0.20674,-1.17919 -0.4511,-2.55224 -0.081,-0.45526 -0.19111,-1.09556 -0.24464,-1.42288 -0.0535,-0.32732 -0.11665,-0.64549 -0.14027,-0.70704 -0.0392,-0.10225 0.2381,-0.11191 3.21385,-0.11191 2.97574,0 3.25308,0.01 3.21384,0.11191 -0.0236,0.0616 -0.0869,0.37972 -0.14058,0.70704 -0.095,0.57918 -0.14615,0.87218 -0.45282,2.59553 -0.081,0.45526 -0.19158,1.08384 -0.24571,1.39683 -0.0541,0.31299 -0.14666,0.84069 -0.20563,1.17265 -0.059,0.33196 -0.15378,0.86741 -0.21068,1.18989 -0.0569,0.32248 -0.15003,0.85017 -0.20694,1.17265 -0.0569,0.32248 -0.14621,0.83465 -0.19845,1.13816 -0.35212,2.04576 -0.7357,4.13431 -0.76928,4.18864 -0.0182,0.0295 -0.37091,0.0536 -0.78375,0.0536 -0.41285,0 -0.76554,-0.0241 -0.78375,-0.0536 z"
       id="path528"
       sodipodi:nodetypes="csscssssssssssssssssssssccssssssssscssssssscsssscssssssssssscssssssssssssccssssssscsssccsscsscscccssscsscsscssscccsssscssscssscsssssssccscsssssssssc" /></g></svg>
