<?xml version="1.0" encoding="UTF-8" standalone="no"?>
<!-- Created with Inkscape (http://www.inkscape.org/) -->

<svg
   width="210mm"
   height="297mm"
   viewBox="0 0 210 297"
   version="1.1"
   id="svg5"
   xml:space="preserve"
   inkscape:export-filename="corrective.png"
   inkscape:export-xdpi="106.57"
   inkscape:export-ydpi="106.57"
   inkscape:version="1.2 (dc2aedaf03, 2022-05-15)"
   sodipodi:docname="Resources.svg"
   xmlns:inkscape="http://www.inkscape.org/namespaces/inkscape"
   xmlns:sodipodi="http://sodipodi.sourceforge.net/DTD/sodipodi-0.dtd"
   xmlns="http://www.w3.org/2000/svg"
   xmlns:svg="http://www.w3.org/2000/svg"><sodipodi:namedview
     id="namedview7"
     pagecolor="#505050"
     bordercolor="#eeeeee"
     borderopacity="1"
     inkscape:showpageshadow="0"
     inkscape:pageopacity="0"
     inkscape:pagecheckerboard="0"
     inkscape:deskcolor="#505050"
     inkscape:document-units="mm"
     showgrid="false"
     inkscape:zoom="0.84096521"
     inkscape:cx="497.04791"
     inkscape:cy="491.10236"
     inkscape:window-width="1366"
     inkscape:window-height="705"
     inkscape:window-x="-8"
     inkscape:window-y="-8"
     inkscape:window-maximized="1"
     inkscape:current-layer="layer1" /><defs
     id="defs2"><clipPath
       clipPathUnits="userSpaceOnUse"
       id="clipPath467"><rect
         style="fill:none;stroke:#ff0000;stroke-width:0.465;stroke-linecap:round;stroke-linejoin:round;paint-order:stroke fill markers;stop-color:#000000"
         id="rect469"
         width="54.035751"
         height="54.114403"
         x="9.2025948"
         y="81.643539" /></clipPath><clipPath
       clipPathUnits="userSpaceOnUse"
       id="clipPath473"><rect
         style="fill:none;stroke:#ff0000;stroke-width:0.465;stroke-linecap:round;stroke-linejoin:round;paint-order:stroke fill markers;stop-color:#000000"
         id="rect475"
         width="51.390335"
         height="53.83749"
         x="117.68609"
         y="79.64389" /></clipPath></defs><g
     inkscape:label="Capa 1"
     inkscape:groupmode="layer"
     id="layer1"><path
       style="fill:#000000;stroke-width:1"
       d="m 23.816467,82.142153 c -1.652389,-0.34375 -2.956979,-1.04421 -4.130514,-2.21774 -1.203494,-1.20349 -1.92212,-2.57245 -2.245659,-4.27788 -0.141071,-0.74361 -0.142164,-0.87577 -0.14227,-17.202479 l -1.07e-4,-16.453121 0.165311,-0.791727 c 0.173691,-0.831862 0.376938,-1.433509 0.712728,-2.109796 0.917902,-1.848675 2.691536,-3.401703 4.590537,-4.019563 1.10011,-0.357932 1.2515,-0.377561 3.222823,-0.417858 l 1.896933,-0.03878 0.03848,-1.276118 c 0.04287,-1.421703 0.08453,-1.584705 0.532167,-2.08238 0.332308,-0.369454 0.993763,-0.676795 1.456591,-0.676795 0.71254,0 1.468323,0.4671 1.817526,1.123296 0.140137,0.263336 0.158059,0.414479 0.18988,1.601389 l 0.03514,1.310608 4.535393,0.01774 4.535393,0.01774 8.21e-4,-1.086921 c 8.97e-4,-1.190847 0.0742,-1.604967 0.365858,-2.066989 0.330962,-0.52428 1.045261,-0.916865 1.668213,-0.916865 0.603427,0 1.326026,0.386485 1.656624,0.886053 0.305648,0.461864 0.376713,0.850169 0.37752,2.062815 l 7.47e-4,1.120915 h 4.581649 4.581649 l 0.02272,-1.258874 c 0.02199,-1.217984 0.02902,-1.271698 0.216621,-1.653728 0.456634,-0.929895 1.534695,-1.377844 2.465144,-1.0243 0.692917,0.263287 1.1155,0.741627 1.284205,1.453645 0.05302,0.223762 0.09033,0.81089 0.09097,1.431321 l 0.0011,1.051936 1.67275,0.0014 c 1.836366,0.0015 2.266829,0.04344 3.190555,0.310888 2.148038,0.621914 3.977859,2.157797 4.969727,4.171405 0.32766,0.665186 0.549385,1.327926 0.712848,2.13072 0.142279,0.698758 0.145921,0.873879 0.145921,7.016689 v 6.30004 l -0.176032,0.39859 c -0.214503,0.48571 -0.505896,0.80082 -0.962127,1.04042 -0.282062,0.14813 -0.439961,0.18156 -0.866698,0.18353 -0.447235,0.002 -0.580027,-0.0273 -0.929253,-0.20576 -0.438198,-0.22387 -0.834676,-0.66915 -1.001646,-1.12493 -0.07421,-0.20257 -0.100714,-1.54078 -0.132081,-6.66851 -0.03869,-6.32545 -0.04128,-6.420384 -0.185632,-6.79447 -0.251618,-0.65209 -0.514197,-1.052477 -1.018664,-1.553283 -0.513362,-0.509636 -0.974996,-0.792901 -1.660293,-1.01878 -0.351961,-0.116009 -0.664117,-0.141267 -2.086625,-0.168839 l -1.67275,-0.03242 v 1.061763 c 0,0.729827 -0.03295,1.188252 -0.105384,1.466361 -0.189194,0.726366 -0.697281,1.237585 -1.446651,1.45557 -0.357772,0.104073 -0.469982,0.108965 -0.827753,0.03609 -0.771984,-0.157253 -1.363117,-0.691487 -1.589066,-1.436111 -0.0689,-0.22706 -0.09966,-0.671907 -0.100182,-1.448603 l -7.46e-4,-1.120915 H 49.68375 45.096623 l -8.21e-4,1.086425 c -5.52e-4,0.699142 -0.03454,1.213058 -0.0954,1.44166 -0.202122,0.759117 -0.803399,1.316545 -1.593772,1.477544 -0.989763,0.201615 -2.00716,-0.465639 -2.274403,-1.491656 -0.0723,-0.277581 -0.105383,-0.735856 -0.105383,-1.459782 V 38.64755 l -4.535393,0.01774 -4.535393,0.01774 -0.03514,1.310607 c -0.03946,1.471997 -0.08279,1.625374 -0.597077,2.113516 -1.001616,0.950704 -2.540087,0.699003 -3.183169,-0.520781 -0.178784,-0.339113 -0.185888,-0.395528 -0.207976,-1.651565 l -0.02287,-1.300459 -1.632792,0.03258 c -1.381195,0.02756 -1.696566,0.05358 -2.046668,0.168859 -0.684985,0.225544 -1.146818,0.508893 -1.660293,1.01864 -0.503285,0.499632 -0.764641,0.897606 -1.020067,1.553283 l -0.147794,0.379387 -0.01808,16.481117 c -0.02004,18.260469 -0.05544,16.812759 0.435641,17.817279 0.158701,0.32463 0.395017,0.65206 0.677533,0.93878 0.466217,0.47315 0.810071,0.70122 1.501522,0.9959 l 0.438481,0.18687 8.380992,0.0368 c 5.833354,0.0256 8.445122,0.0599 8.591961,0.11269 0.381351,0.13714 0.613217,0.28489 0.867857,0.55301 0.315494,0.33219 0.4441,0.58693 0.527247,1.04441 0.170014,0.93539 -0.370174,1.88126 -1.265765,2.21634 -0.376334,0.1408 -0.459351,0.1421 -8.672153,0.13593 l -8.29218,-0.006 -0.758773,-0.15785 z m 32.006424,0.13754 c -0.03794,-0.012 -0.348346,-0.0604 -0.689794,-0.10754 -5.164759,-0.71272 -9.284267,-4.62304 -10.324413,-9.80014 -0.134196,-0.66793 -0.158081,-1.00323 -0.15917,-2.234419 -0.0013,-1.51354 0.04667,-1.94321 0.351289,-3.14379 1.061101,-4.18215 4.530841,-7.65189 8.712988,-8.71299 1.200587,-0.30462 1.630257,-0.35263 3.14379,-0.35129 1.231192,10e-4 1.566494,0.025 2.234427,0.15917 2.432599,0.48874 4.566178,1.62131 6.300739,3.34463 2.235859,2.22137 3.486086,5.07577 3.619091,8.26278 0.112596,2.697969 -0.800582,5.542989 -2.506592,7.809339 -0.461636,0.61326 -1.557969,1.71659 -2.182696,2.19663 -1.333071,1.02432 -2.989394,1.83957 -4.533346,2.23132 -0.812619,0.20618 -2.217484,0.37658 -3.069582,0.37231 -0.455264,-0.002 -0.858793,-0.014 -0.896731,-0.026 z m 2.929192,-4.24041 c 0.985622,-0.27313 1.763329,-0.61109 2.451198,-1.06519 1.823373,-1.2037 2.96399,-2.78953 3.554588,-4.942 0.177375,-0.64646 0.256084,-2.273749 0.14835,-3.067149 -0.157536,-1.16019 -0.643873,-2.4297 -1.334475,-3.48346 -0.391892,-0.59797 -1.559974,-1.76098 -2.169638,-2.16021 -1.790335,-1.17237 -3.913174,-1.65117 -5.855133,-1.3206 -1.753811,0.29855 -5.600214,0.95831 -4.516284,2.31002 3.518245,4.38743 0.150202,4.2036 -2.310022,4.51629 -1.955916,0.24859 0.148623,4.068279 1.320171,5.849599 0.407094,0.61898 1.565388,1.78506 2.160636,2.17517 0.974212,0.63847 2.260292,1.15187 3.311009,1.32175 0.208663,0.0337 0.907079,0.0494 1.552036,0.0349 0.912186,-0.0206 1.28702,-0.0581 1.687564,-0.16913 z m -2.665078,-6.08013 c -0.452592,-0.17402 -0.88539,-0.59241 -1.101791,-1.065089 l -0.168763,-0.36862 0.02036,-2.60821 c 0.0197,-2.52359 0.02521,-2.61715 0.169723,-2.88412 0.631297,-1.16622 2.10427,-1.43993 3.142698,-0.58397 0.138386,0.11407 0.338947,0.38525 0.44569,0.60263 0.187053,0.38091 0.195326,0.44265 0.228567,1.70583 l 0.03449,1.3106 0.758773,0.0385 c 0.520731,0.0264 0.828812,0.0755 0.982025,0.15649 0.348173,0.18398 0.695794,0.51851 0.900299,0.86638 0.166147,0.28262 0.187002,0.38759 0.186563,0.93901 -5.52e-4,0.71811 -0.124377,1.027229 -0.59391,1.482899 -0.518375,0.50307 -0.774378,0.5525 -2.839906,0.54839 -1.633786,-0.003 -1.842514,-0.0168 -2.164821,-0.14075 z m -26.667931,-0.6446 c -0.583161,-0.16718 -0.996422,-0.502819 -1.279251,-1.039009 -0.152682,-0.28945 -0.181927,-0.4336 -0.181927,-0.89673 0,-0.46404 0.02926,-0.60769 0.183929,-0.90294 0.651322,-1.24332 2.277228,-1.47697 3.237526,-0.46524 0.424985,0.44774 0.507205,0.66964 0.506944,1.36818 -2.07e-4,0.50446 -0.02813,0.67253 -0.149097,0.89673 -0.449893,0.833879 -1.457792,1.285619 -2.318124,1.039009 z m 8.754062,-0.0136 c -0.731133,-0.224539 -1.210916,-0.737179 -1.397479,-1.493179 -0.09908,-0.4015 -0.0989,-0.47755 0.0021,-0.87171 0.199614,-0.77917 0.675537,-1.26474 1.464829,-1.49452 1.046698,-0.30472 2.177131,0.41303 2.440394,1.5495 0.228509,0.98643 -0.447222,2.05313 -1.473759,2.326459 -0.439737,0.11708 -0.609757,0.11437 -1.036066,-0.0165 z m -8.893643,-8.811999 c -0.620788,-0.23134 -1.13472,-0.77901 -1.298354,-1.38356 -0.104671,-0.38672 -0.03897,-1.05453 0.137841,-1.40111 0.186419,-0.36541 0.54922,-0.73026 0.924505,-0.92973 0.391811,-0.20825 1.338703,-0.22254 1.705407,-0.0257 0.437481,0.23479 0.728463,0.50923 0.934743,0.88161 0.180481,0.32581 0.203417,0.43333 0.203417,0.95354 0,0.52044 -0.0229,0.62767 -0.203762,0.95418 -0.361615,0.65281 -0.899632,0.9849 -1.658681,1.0238 -0.305415,0.0157 -0.579231,-0.0112 -0.745116,-0.073 z m 8.846964,0.0343 c -0.281782,-0.0921 -0.717347,-0.39089 -0.918973,-0.63051 -0.851671,-1.01215 -0.564811,-2.47494 0.605584,-3.08806 0.295246,-0.15467 0.438901,-0.18393 0.902941,-0.18393 0.464039,0 0.607695,0.0293 0.902941,0.18393 1.455886,0.76268 1.452308,2.83128 -0.0062,3.59005 -0.301074,0.15663 -1.170181,0.23178 -1.486283,0.12852 z m -8.722662,-8.795725 c -0.848535,-0.26836 -1.388166,-0.9175 -1.463889,-1.76096 -0.142918,-1.59194 1.596838,-2.70136 2.981435,-1.90124 0.586752,0.33908 0.93686,0.88776 0.983071,1.54066 0.05451,0.77017 -0.19627,1.35334 -0.76438,1.77751 -0.535809,0.40005 -1.164931,0.52471 -1.736237,0.34403 z m 8.690867,-0.0275 c -0.699562,-0.24191 -1.19339,-0.81089 -1.342534,-1.54685 -0.281558,-1.38937 1.052601,-2.64925 2.431386,-2.29602 0.772732,0.19796 1.26826,0.70372 1.47983,1.51039 0.100825,0.38441 0.103133,0.48295 0.01948,0.83166 -0.182368,0.7602 -0.689355,1.30967 -1.404297,1.52199 -0.446138,0.13249 -0.755516,0.12696 -1.183863,-0.0212 z m 8.698127,-0.0469 c -0.458758,-0.1886 -0.876748,-0.55695 -1.097637,-0.96728 -0.118811,-0.22071 -0.148503,-0.39324 -0.148391,-0.86225 1.38e-4,-0.5017 0.02674,-0.63699 0.184436,-0.93743 0.302061,-0.57546 0.757713,-0.91421 1.417539,-1.05385 0.842163,-0.17823 1.722457,0.25491 2.141822,1.05385 0.157698,0.30044 0.184316,0.43573 0.184436,0.93743 1.38e-4,0.46811 -0.02981,0.64259 -0.148422,0.86535 -0.329981,0.61974 -1.167949,1.13718 -1.835527,1.13342 -0.159816,-9.1e-4 -0.474031,-0.0771 -0.698256,-0.16924 z m 8.880585,0.0432 c -0.971642,-0.33577 -1.547034,-1.31177 -1.337833,-2.26926 0.382475,-1.75055 2.548503,-2.2135 3.612985,-0.7722 0.283811,0.38427 0.419016,1.01517 0.3211,1.49834 -0.152343,0.75175 -0.696248,1.35862 -1.406774,1.56962 -0.443468,0.1317 -0.751557,0.12483 -1.189478,-0.0265 z"
       id="path477"
       sodipodi:nodetypes="cssscsssscssssscccssssscccsssssccsssscssccsssssscsssssscccccssscccsssscsssscsssscscsssccccscscssccssssscsssssssssssssccsscscssssscccssscccsssssscscscssscccssscssscccsssscssssssssscssssscccssssscsscssssss"
       inkscape:export-filename="preventive.png"
       inkscape:export-xdpi="98.190002"
       inkscape:export-ydpi="98.190002" /><path
       style="fill:#000000;stroke-width:1"
       d="m 110.33405,76.416315 c -0.18064,-0.0545 -0.32791,-0.16216 -0.43112,-0.31531 -0.14885,-0.22088 -0.15675,-0.29633 -0.15675,-1.49612 v -1.26352 l -0.20495,-0.23342 c -0.17532,-0.19969 -0.28748,-0.25077 -0.77602,-0.35347 -1.47601,-0.31029 -2.84717,-0.73871 -4.14267,-1.29441 -0.66987,-0.28734 -0.86099,-0.34198 -1.08913,-0.31138 -0.15219,0.0204 -0.31721,0.0707 -0.36671,0.11181 -0.0495,0.0411 -0.39728,0.4987 -0.77284,1.01693 -0.73547,1.01486 -0.94189,1.17979 -1.36347,1.08941 -0.11938,-0.0256 -0.76025,-0.43563 -1.42418,-0.91121 -0.66393,-0.47559 -1.36234,-0.97352 -1.55204,-1.10653 -1.2142,-0.85137 -1.53814,-1.14484 -1.59433,-1.44437 -0.0582,-0.31009 0.004,-0.43157 0.74174,-1.44824 0.34414,-0.47427 0.65273,-0.95655 0.68576,-1.07173 0.0796,-0.27753 -0.10052,-0.66222 -0.52374,-1.11858 -0.8324,-0.89757 -1.69754,-2.0761 -2.450269,-3.33789 -0.40596,-0.68049 -0.55561,-0.87375 -0.73442,-0.94846 -0.32489,-0.13575 -0.37222,-0.12803 -1.53962,0.25106 -1.15836,0.37616 -1.28798,0.39581 -1.5879,0.24071 -0.29862,-0.15442 -0.16657,0.18823 -1.51323,-3.9265 -0.61426,-1.87688 -0.61049,-1.88535 1.08888,-2.4452 1.10081,-0.36266 1.36325,-0.51426 1.48425,-0.85739 0.0242,-0.0687 -0.002,-0.64297 -0.058,-1.27612 -0.12834,-1.44742 -0.12855,-2.03503 -0.001,-3.47815 0.0625,-0.70883 0.0783,-1.21463 0.0408,-1.3106 -0.12693,-0.32488 -0.34293,-0.44597 -1.44827,-0.81187 -1.71926,-0.56913 -1.7214,-0.57387 -1.10636,-2.45311 1.34666,-4.11472 1.21461,-3.77207 1.51323,-3.9265 0.29992,-0.15509 0.42954,-0.13544 1.5879,0.24072 0.58415,0.18969 1.13507,0.34489 1.22427,0.34489 0.34218,0 0.55456,-0.19567 0.95409,-0.87904 0.61103,-1.04512 1.502509,-2.29265 2.315219,-3.2399 0.40787,-0.47539 0.7605,-0.95048 0.78362,-1.05575 0.0616,-0.28048 -0.0814,-0.55532 -0.78204,-1.50342 -0.9195,-1.24421 -0.91445,-1.40825 0.0662,-2.15003 1.35971,-1.0285 3.59402,-2.592265 3.78582,-2.649654 0.43338,-0.129677 0.60358,-0.0058 1.31738,0.959204 0.36452,0.49279 0.7335,0.96521 0.81995,1.04982 0.29912,0.29277 0.54202,0.27521 1.43218,-0.10357 1.45867,-0.62069 2.74588,-1.03616 4.01753,-1.29671 1.14759,-0.235144 1.17255,-0.275699 1.1729,-1.905948 2.1e-4,-1.070985 0.0144,-1.216478 0.13799,-1.419222 0.0758,-0.124246 0.21936,-0.256936 0.31912,-0.294865 0.24323,-0.09248 5.3261,-0.09248 5.56933,0 0.0998,0.03793 0.24336,0.170619 0.31912,0.294865 0.12435,0.203962 0.13775,0.348271 0.13799,1.485789 l 2.7e-4,1.259886 0.22419,0.235305 c 0.20597,0.21619 0.30542,0.2531 1.22438,0.45443 1.17609,0.25766 2.71255,0.75301 3.71684,1.19829 1.09943,0.48746 1.22385,0.45902 1.8965,-0.43345 0.27497,-0.36483 0.60252,-0.81388 0.72787,-0.99787 0.26308,-0.38613 0.59354,-0.560494 0.92601,-0.488604 0.11937,0.02581 0.74187,0.423344 1.38333,0.883394 0.64145,0.46006 1.28269,0.91678 1.42498,1.01494 0.6063,0.41826 1.28733,0.92965 1.49504,1.12264 0.23091,0.21454 0.34065,0.54672 0.26224,0.79379 -0.0246,0.0775 -0.34137,0.55098 -0.70391,1.0521 -0.36255,0.50112 -0.68915,0.99711 -0.72578,1.1022 -0.0893,0.25608 0.10684,0.67394 0.53089,1.13119 0.8324,0.89758 1.69753,2.07611 2.45027,3.33789 0.40596,0.68049 0.55561,0.87376 0.73442,0.94847 0.32487,0.13574 0.37192,0.12804 1.53278,-0.25106 1.11799,-0.3651 1.2763,-0.39211 1.55466,-0.26529 0.24957,0.11372 0.37171,0.33287 0.62503,1.12156 0.12291,0.38267 0.47886,1.48089 0.79101,2.4405 0.37157,1.1423 0.55331,1.8014 0.52634,1.90885 -0.10401,0.41441 -0.33578,0.55917 -1.49272,0.93236 -1.10752,0.35724 -1.31953,0.47625 -1.45181,0.81496 -0.0386,0.0988 -0.0234,0.59241 0.0403,1.31061 0.0562,0.63367 0.10216,1.41597 0.10216,1.73845 0,0.32248 -0.046,1.10479 -0.10216,1.73846 -0.0637,0.71819 -0.0788,1.21182 -0.0403,1.3106 0.12727,0.32589 0.34084,0.44566 1.44602,0.81091 1.72152,0.56895 1.72476,0.57613 1.10944,2.45625 -1.34666,4.11473 -1.21461,3.77208 -1.51323,3.9265 -0.29994,0.1551 -0.42956,0.13545 -1.58792,-0.24071 -1.16955,-0.37979 -1.21425,-0.38701 -1.54362,-0.24939 -0.17547,0.0733 -0.30568,0.2296 -0.56032,0.67255 -0.75532,1.31385 -1.71624,2.65292 -2.56731,3.57764 -0.42949,0.46666 -0.64097,0.80223 -0.63903,1.01402 0.002,0.16663 0.19997,0.48918 0.88278,1.43486 0.34203,0.47369 0.58715,0.88455 0.60729,1.01791 0.0647,0.42822 -0.1092,0.59537 -2.21549,2.1296 -1.10022,0.8014 -2.10603,1.50211 -2.23514,1.55711 -0.20761,0.0884 -0.26741,0.0874 -0.51735,-0.009 -0.23892,-0.0926 -0.38421,-0.24975 -0.94003,-1.01692 -0.36158,-0.49909 -0.73767,-0.96734 -0.83575,-1.04057 -0.22308,-0.16655 -0.585,-0.18065 -0.89243,-0.0348 -1.24271,0.58971 -2.99792,1.16631 -4.47784,1.47102 -1.14879,0.23653 -1.17264,0.27546 -1.17264,1.91357 0,1.13412 -0.009,1.2132 -0.15676,1.43297 -0.25314,0.37564 -0.4265,0.39801 -3.08527,0.39801 -1.65116,0 -2.4638,-0.0253 -2.65416,-0.0827 z m 5.27537,-7.41553 c 1.00298,-0.17347 1.53871,-0.29466 2.27632,-0.51495 4.41935,-1.31988 8.17204,-4.478 10.2704,-8.64316 0.82613,-1.63986 1.29415,-3.11689 1.63659,-5.16503 0.19266,-1.15235 0.17852,-3.88623 -0.0262,-5.06998 -0.4947,-2.8601 -1.52441,-5.30958 -3.14621,-7.48426 -2.69725,-3.61677 -6.44386,-5.88697 -11.01087,-6.67187 -1.1859,-0.20381 -3.92281,-0.21921 -5.06998,-0.0285 -2.97612,0.49469 -5.43366,1.51271 -7.65671,3.17174 -3.61014,2.6942 -5.88854,6.45505 -6.67186,11.01292 -0.20382,1.1859 -0.21922,3.92281 -0.0285,5.06998 0.3344,2.01182 0.79714,3.46714 1.64196,5.16397 2.45743,4.93583 7.25639,8.39988 12.71515,9.17825 0.41732,0.0595 0.85189,0.12127 0.96571,0.13725 0.11382,0.016 0.90535,0.0182 1.75897,0.005 1.14631,-0.0178 1.75941,-0.06 2.3453,-0.1613 z m -3.43049,-6.41783 c -0.62512,-0.23207 -1.14508,-0.71132 -1.41705,-1.30608 -0.22854,-0.49979 -0.21501,-1.43247 0.0283,-1.9514 0.25496,-0.54375 0.60258,-0.89943 1.14513,-1.17168 0.42109,-0.2113 0.5237,-0.2341 1.05289,-0.23392 0.5208,2.1e-4 0.6374,0.0252 1.04342,0.22365 0.53222,0.26016 0.8979,0.63451 1.15459,1.18195 0.15442,0.32933 0.18168,0.48109 0.18118,1.00848 -4.8e-4,0.53697 -0.0263,0.67323 -0.19066,1.00892 -0.22679,0.46305 -0.75149,0.97496 -1.20496,1.17557 -0.47565,0.21042 -1.31817,0.24074 -1.79285,0.0645 z m 0.0255,-7.16564 c -0.0305,-0.0493 -0.32689,-1.6409 -0.56815,-3.05048 -0.0552,-0.32248 -0.14691,-0.85017 -0.20382,-1.17265 -0.0569,-0.32248 -0.15003,-0.85017 -0.20693,-1.17265 -0.0569,-0.32248 -0.15003,-0.85017 -0.20694,-1.17265 -0.0569,-0.32247 -0.15046,-0.85017 -0.20789,-1.17265 -0.0574,-0.32247 -0.1476,-0.83465 -0.20036,-1.13815 -0.10069,-0.57914 -0.20674,-1.17919 -0.4511,-2.55224 -0.081,-0.45526 -0.19111,-1.09556 -0.24464,-1.42288 -0.0535,-0.32732 -0.11665,-0.64549 -0.14027,-0.70704 -0.0392,-0.10225 0.2381,-0.11191 3.21385,-0.11191 2.97574,0 3.25308,0.01 3.21384,0.11191 -0.0236,0.0616 -0.0869,0.37972 -0.14058,0.70704 -0.095,0.57918 -0.14615,0.87218 -0.45282,2.59553 -0.081,0.45526 -0.19158,1.08384 -0.24571,1.39683 -0.0541,0.31299 -0.14666,0.84069 -0.20563,1.17265 -0.059,0.33196 -0.15378,0.86741 -0.21068,1.18989 -0.0569,0.32248 -0.15003,0.85017 -0.20694,1.17265 -0.0569,0.32248 -0.14621,0.83465 -0.19845,1.13816 -0.35212,2.04576 -0.7357,4.13431 -0.76928,4.18864 -0.0182,0.0295 -0.37091,0.0536 -0.78375,0.0536 -0.41285,0 -0.76554,-0.0241 -0.78375,-0.0536 z"
       id="path528"
       sodipodi:nodetypes="csscssssssssssssssssssssccssssssssscssssssscsssscssssssssssscssssssssssssccssssssscsssccsscsscscccssscsscsscssscccsssscssscssscsssssssccscsssssssssc" /><path
       style="fill:#222222;stroke-width:0.0330729;fill-opacity:1"
       d="m 16.885563,130.10221 c -0.236242,-0.143 -0.248159,-0.19566 -0.24973,-1.10331 l -0.0014,-0.80153 5.399152,-0.009 5.399153,-0.009 0.177396,-0.0754 c 0.256723,-0.10914 0.422426,-0.23259 0.753042,-0.56104 0.631906,-0.62774 1.282487,-1.55045 1.766567,-2.50547 0.156745,-0.30923 0.316049,-0.63665 0.35401,-0.7276 l 0.06902,-0.16537 0.0028,2.80902 c 0.0028,2.79103 0.0024,2.80994 -0.06695,2.95287 -0.0477,0.0985 -0.109781,0.16432 -0.197122,0.20887 -0.125501,0.064 -0.229852,0.065 -6.702043,0.0649 l -6.574557,-1.3e-4 z m -3.00407,-2.96621 c -0.139729,-0.0738 -0.25668,-0.26888 -0.25668,-0.42821 0,-0.15246 0.08018,-0.28057 0.335131,-0.53552 0.441283,-0.44129 0.91464,-1.08914 1.308428,-1.79075 0.736003,-1.31135 1.241682,-3.11161 1.322625,-4.70867 l 0.02058,-0.40614 h 6.961836 6.961838 l -0.02172,0.42953 c -0.0677,1.33754 -0.376595,2.74858 -0.883395,4.03531 -0.151303,0.38415 -0.602892,1.27181 -0.841276,1.65364 -0.454084,0.72735 -1.225107,1.63786 -1.488121,1.75734 -0.126804,0.0576 -0.418156,0.0602 -6.714066,0.0595 -6.488113,-6.9e-4 -6.583262,-10e-4 -6.705166,-0.066 z m 2.752954,-9.65654 c 0,-0.73157 0.0054,-0.8055 0.06659,-0.9256 0.04286,-0.084 0.113104,-0.15426 0.19712,-0.19712 0.124221,-0.0634 0.192919,-0.0666 1.421689,-0.0666 h 1.291161 v -0.29898 c 0,-0.3684 0.06628,-0.5259 0.263711,-0.62661 0.165314,-0.0844 0.299451,-0.0844 0.464765,0 0.197431,0.10071 0.263711,0.25821 0.263711,0.62661 v 0.29898 h 1.240235 1.240233 v -0.29898 c 0,-0.3684 0.06628,-0.5259 0.263711,-0.62661 0.165314,-0.0844 0.299451,-0.0844 0.464765,0 0.197431,0.10071 0.263711,0.25821 0.263711,0.62661 v 0.29898 h 1.25677 1.256769 v -0.29898 c 0,-0.3684 0.06628,-0.5259 0.263712,-0.62661 0.165316,-0.0844 0.299453,-0.0844 0.464765,0 0.197433,0.10071 0.263712,0.25821 0.263712,0.62661 v 0.29898 h 1.291162 c 1.228769,0 1.297469,0.003 1.42169,0.0666 0.08401,0.0429 0.154257,0.1131 0.197118,0.19712 0.06127,0.1201 0.06659,0.19403 0.06659,0.9256 v 0.79506 h -6.961852 -6.961847 z"
       id="path286" /><path
       style="fill:#222222;stroke-width:0.0315482;fill-opacity:1"
       d="m 37.044962,130.78638 c -0.678839,-0.10057 -1.126798,-0.31847 -1.582981,-0.77 -0.650569,-0.64392 -0.843643,-1.36703 -0.741277,-2.77626 0.06721,-0.9251 0.234879,-1.78956 0.467645,-2.41093 0.137054,-0.36585 0.434413,-0.92395 0.622594,-1.1685 0.572746,-0.74433 1.381542,-1.15802 2.29817,-1.17551 0.34292,-0.007 0.372962,0.007 1.093387,0.46416 0.547241,0.34786 0.573653,0.3618 0.951488,0.50196 0.527371,0.19563 0.789275,0.24522 1.287668,0.24377 0.774203,-0.002 1.380729,-0.20715 2.229691,-0.75324 0.740884,-0.47658 0.787015,-0.49293 1.263973,-0.44773 1.698019,0.16088 2.734483,1.45153 3.114637,3.87844 0.133845,0.85447 0.144078,2.00888 0.02195,2.47655 -0.245779,0.94118 -0.949431,1.62249 -1.943659,1.88191 l -0.283935,0.0741 -4.30635,0.005 c -2.368492,0.003 -4.390344,-0.008 -4.493005,-0.0231 z m 3.956684,-8.36037 c -1.244471,-0.0854 -2.393735,-0.8146 -3.053265,-1.93723 -0.572841,-0.97507 -0.665751,-2.32038 -0.233592,-3.38232 0.46412,-1.14047 1.512896,-2.05214 2.671663,-2.32236 1.384729,-0.32293 2.714427,0.051 3.694289,1.03878 0.67197,0.67742 1.032751,1.44796 1.112499,2.37604 0.07905,0.91988 -0.127052,1.75226 -0.621402,2.50968 -0.191665,0.29367 -0.812885,0.9134 -1.105912,1.10325 -0.742483,0.48108 -1.532948,0.67808 -2.46428,0.61416 z"
       id="path354" /><path
       style="fill:#222222;stroke-width:0.0330729;fill-opacity:1"
       d="m 62.957491,131.14795 c -0.07276,-0.0243 -0.310885,-0.0988 -0.529166,-0.1656 -1.325411,-0.40563 -2.829897,-1.14348 -3.70394,-1.81653 -1.778758,-1.36974 -2.7388,-3.03665 -2.925299,-5.07917 -0.02165,-0.23708 -0.0345,-1.67596 -0.03411,-3.81993 5.82e-4,-3.26333 0.0037,-3.44641 0.06121,-3.57298 0.04386,-0.0965 0.100767,-0.15373 0.20598,-0.20698 0.07996,-0.0405 1.693191,-0.55284 3.584962,-1.13861 2.707828,-0.83845 3.474764,-1.06427 3.604947,-1.06146 0.116756,0.003 1.181602,0.31919 3.622555,1.07728 1.901455,0.59053 3.506248,1.09907 3.566206,1.13007 0.06902,0.0357 0.132064,0.10714 0.171835,0.19474 0.06041,0.13306 0.06284,0.27038 0.06343,3.57794 3.84e-4,2.14397 -0.01247,3.58285 -0.03411,3.81993 -0.208026,2.27829 -1.404093,4.13215 -3.553458,5.50774 -0.494741,0.31663 -1.565934,0.84537 -2.199348,1.08559 -0.616467,0.23379 -1.537866,0.51809 -1.668198,0.51473 -0.05566,-10e-4 -0.160734,-0.0225 -0.233495,-0.0468 z m 4.227393,-4.8618 c 0.272259,-0.0709 0.440106,-0.16562 0.652423,-0.36814 0.330294,-0.31505 0.480248,-0.69549 0.45342,-1.15035 -0.0087,-0.14718 -0.03761,-0.32842 -0.06428,-0.40275 -0.02667,-0.0743 -0.888239,-1.65935 -1.914585,-3.52227 -1.706103,-3.09673 -1.883097,-3.40433 -2.064522,-3.58793 -0.599837,-0.607 -1.554758,-0.58987 -2.128471,0.0382 -0.113142,0.12386 -0.642797,1.0554 -2.01229,3.53915 -1.022302,1.85407 -1.883715,3.43041 -1.914251,3.50298 -0.03054,0.0726 -0.06293,0.25927 -0.07199,0.41489 -0.02782,0.4781 0.122743,0.85935 0.464263,1.17554 0.218008,0.20183 0.372993,0.29052 0.627407,0.35903 0.26748,0.072 7.696783,0.0736 7.972878,0.002 z m -7.808588,-0.99774 c -0.172441,-0.085 -0.255359,-0.22859 -0.254692,-0.44109 5.59e-4,-0.17801 0.03999,-0.25329 1.845274,-3.52226 1.014588,-1.8372 1.875259,-3.36625 1.912604,-3.39788 0.03735,-0.0316 0.125985,-0.0749 0.196978,-0.0962 0.159336,-0.0477 0.365892,0.005 0.472567,0.11968 0.03912,0.0422 0.89658,1.5703 1.905467,3.39575 1.795105,3.24801 1.834353,3.32289 1.834944,3.5009 4.53e-4,0.13588 -0.01806,0.20807 -0.07316,0.28531 -0.15995,0.22424 0.09576,0.21087 -4.01574,0.21003 -3.355103,-6.8e-4 -3.726238,-0.006 -3.824244,-0.0542 z m 4.061625,-1.00377 c 0.445385,-0.22722 0.270048,-0.9256 -0.232383,-0.9256 -0.493784,0 -0.674467,0.65663 -0.250601,0.91073 0.164276,0.0985 0.310287,0.10297 0.482984,0.0149 z m 0,-1.65365 c 0.08401,-0.0429 0.154259,-0.1131 0.19712,-0.19712 0.06305,-0.12359 0.06659,-0.19317 0.06659,-1.3092 0,-1.30309 -0.004,-1.33122 -0.210784,-1.47871 -0.07686,-0.0548 -0.150107,-0.0738 -0.28531,-0.0738 -0.135203,0 -0.208448,0.0189 -0.28531,0.0738 -0.207157,0.14776 -0.210931,0.17453 -0.209397,1.48566 0.0016,1.33604 0.0018,1.33731 0.249729,1.4874 0.158372,0.0959 0.305671,0.0996 0.477361,0.012 z"
       id="path402" /><path
       style="fill:#222222;stroke-width:0.0331153;fill-opacity:1"
       d="m 78.700283,131.1567 c -1.048068,-0.22312 -1.788384,-1.08446 -1.860928,-2.16515 -0.03278,-0.4883 0.122693,-1.03313 0.421836,-1.47825 0.05906,-0.0879 1.691972,-1.74685 3.628685,-3.68659 l 3.521297,-3.52678 -0.0461,-0.17454 c -0.09371,-0.35482 -0.127689,-0.76026 -0.108166,-1.29079 0.0293,-0.79634 0.165777,-1.3099 0.537932,-2.02426 0.555447,-1.06621 1.555141,-1.91895 2.697579,-2.30104 0.514003,-0.17191 0.899111,-0.23144 1.50675,-0.23291 0.607612,-0.002 0.915964,0.0422 1.419789,0.20088 0.365566,0.11517 0.508232,0.19287 0.584868,0.31856 0.07165,0.11752 0.08499,0.33069 0.02983,0.47668 -0.01937,0.0513 -0.629501,0.6893 -1.355837,1.41784 l -1.320611,1.32461 0.148438,0.67742 c 0.08164,0.37258 0.152224,0.68121 0.156851,0.68583 0.0046,0.005 0.313253,0.0752 0.685833,0.15686 l 0.677418,0.14843 1.324615,-1.32061 c 0.72854,-0.72633 1.366567,-1.33646 1.417839,-1.35583 0.256584,-0.097 0.533526,-0.003 0.646717,0.22011 0.09046,0.17806 0.223279,0.61359 0.292022,0.95754 0.08891,0.44485 0.08002,1.3074 -0.01822,1.7675 -0.310185,1.45279 -1.191644,2.63376 -2.458345,3.29366 -0.714366,0.37215 -1.227929,0.50863 -2.024269,0.53793 -0.53053,0.0195 -0.935963,-0.0144 -1.290783,-0.10816 l -0.174539,-0.0461 -3.526789,3.52129 c -1.939734,1.93672 -3.598697,3.56963 -3.686582,3.62869 -0.552434,0.37126 -1.213706,0.50777 -1.82713,0.37718 z"
       id="path404" /><path
       style="fill:#222222;stroke-width:0.0330555;fill-opacity:1"
       d="m 101.3804,131.13837 c -0.0636,-0.0342 -0.86204,-0.81079 -1.774246,-1.72569 -1.456089,-1.46038 -1.661326,-1.67858 -1.681246,-1.7874 -0.05593,-0.30555 -0.116246,-0.23253 1.681246,-2.03538 0.978856,-0.98178 1.711776,-1.6911 1.788416,-1.73084 0.24968,-0.12945 0.56261,-0.0146 0.68313,0.2508 0.0547,0.12052 0.0616,0.22772 0.0623,0.97014 l 7.5e-4,0.83465 h 3.55056 c 3.82668,0 3.77325,0.002 4.25853,-0.17477 0.68728,-0.25063 1.29024,-0.8547 1.54124,-1.54411 0.1047,-0.28757 0.13411,-0.42825 0.16438,-0.78617 0.024,-0.28428 0.0413,-0.35186 0.1141,-0.44734 0.16653,-0.21833 0.18393,-0.22094 1.47784,-0.22094 1.29779,0 1.31126,0.002 1.4811,0.22574 0.0857,0.11291 0.0888,0.13141 0.0835,0.49944 -0.009,0.62592 -0.1304,1.25664 -0.35444,1.84374 -0.74806,1.96025 -2.42635,3.33611 -4.51567,3.70192 -0.27745,0.0486 -0.7501,0.0564 -4.05756,0.067 l -3.74354,0.012 v 0.83434 c 0,0.79951 -0.003,0.84051 -0.0744,0.98184 -0.0543,0.10774 -0.11412,0.16753 -0.22187,0.22186 -0.17786,0.0897 -0.30958,0.0923 -0.46404,0.009 z m -3.167388,-8.45264 c -0.06037,-0.0297 -0.149616,-0.10658 -0.198333,-0.17074 -0.08519,-0.11219 -0.08836,-0.13128 -0.08299,-0.49884 0.0366,-2.50593 1.859961,-4.79408 4.324691,-5.42709 0.69659,-0.17891 0.54389,-0.17273 4.58646,-0.18558 l 3.76006,-0.0119 v -0.83434 c 0,-0.79952 0.003,-0.84051 0.0744,-0.98184 0.0543,-0.10775 0.11412,-0.16753 0.22187,-0.22187 0.18061,-0.0911 0.297,-0.0938 0.45709,-0.0107 0.0674,0.035 0.86899,0.81222 1.78119,1.72715 1.45607,1.46042 1.66133,1.67864 1.68125,1.78747 0.0559,0.30554 0.11624,0.23252 -1.68125,2.03538 -0.97885,0.98177 -1.71177,1.6911 -1.78841,1.73083 -0.24969,0.12945 -0.56262,0.0146 -0.68313,-0.25079 -0.0547,-0.12052 -0.0616,-0.22772 -0.0623,-0.97015 l -7.5e-4,-0.83465 -3.5452,2.5e-4 c -2.29217,1.3e-4 -3.61999,0.0124 -3.75679,0.0346 -0.92001,0.14928 -1.73386,0.81835 -2.04846,1.68406 -0.10466,0.28797 -0.13401,0.42849 -0.16426,0.78617 -0.024,0.28428 -0.0413,0.35185 -0.1141,0.44733 -0.16671,0.21858 -0.18321,0.22103 -1.482841,0.22019 -1.014104,-6.3e-4 -1.182975,-0.008 -1.278231,-0.0548 z"
       id="path418" /><path
       style="fill:#222222;stroke-width:0.0397728;fill-opacity:1"
       d="m 119.5133,131.17423 c -0.17538,-0.0703 -0.3579,-0.23526 -0.449,-0.4057 l -0.0891,-0.16673 v -7.85514 -7.85514 l 0.0994,-0.17721 c 0.0547,-0.0975 0.17704,-0.2317 0.27188,-0.29829 l 0.17245,-0.12109 3.64828,-0.0105 3.64829,-0.0106 0.16534,0.0901 c 0.0909,0.0495 1.33842,1.06225 2.77217,2.25044 2.03866,1.68948 2.62621,2.1966 2.69577,2.32671 l 0.0889,0.16637 v 5.74718 5.74718 l -0.0994,0.17721 c -0.0547,0.0975 -0.17703,0.2317 -0.27188,0.2983 l -0.17246,0.12108 -6.1912,0.008 c -4.01437,0.005 -6.22575,-0.006 -6.28945,-0.0318 z m 9.09813,-3.39841 c 0.31681,-0.13234 0.52572,-0.43958 0.52572,-0.77315 0,-0.35097 -0.15084,-0.60483 -0.45739,-0.76981 -0.15849,-0.0853 -0.16953,-0.0856 -2.92331,-0.0856 -2.75378,0 -2.76481,3e-4 -2.9233,0.0856 -0.30656,0.16498 -0.45739,0.41884 -0.45739,0.76981 0,0.32898 0.20639,0.63695 0.51705,0.77151 0.2124,0.092 5.49868,0.0935 5.71862,0.002 z m -3.2711,-3.45874 c 0.27998,-0.17322 0.43141,-0.4687 0.40359,-0.78755 -0.0244,-0.27963 -0.15398,-0.49534 -0.39246,-0.65326 l -0.16567,-0.10972 -1.03712,-0.0128 c -1.13876,-0.0141 -1.25134,0.001 -1.47762,0.19979 -0.44359,0.38948 -0.37929,1.1133 0.12207,1.374 0.22419,0.11658 0.32011,0.125 1.33589,0.11726 l 1.01746,-0.008 z m 4.65193,-5.17836 c -2.7531,-2.58822 -3.35852,-3.15344 -3.37772,-3.15344 -0.0322,0 -0.0286,3.32189 0.004,3.35418 0.0146,0.0146 0.83341,0.0259 1.81961,0.0251 l 1.79309,-0.002 -0.23863,-0.22435 z"
       id="path432" /><path
       style="fill:#222222;stroke-width:0.0331052;fill-opacity:1"
       d="m 141.61778,131.16262 c -0.47894,-0.10324 -0.9619,-0.43096 -1.24157,-0.84248 -0.24086,-0.35441 -0.33093,-0.65169 -0.33093,-1.09219 0,-0.27943 0.0159,-0.39631 0.0812,-0.5959 0.21589,-0.66017 0.81648,-1.19373 1.50881,-1.34038 0.34765,-0.0736 13.38913,-0.0736 13.73678,0 0.6966,0.14756 1.29122,0.67631 1.50924,1.34205 0.11444,0.34946 0.11444,0.83899 0,1.18846 -0.21802,0.66574 -0.81264,1.19449 -1.50924,1.34205 -0.33711,0.0714 -13.42263,0.0699 -13.75428,-0.002 z m 1.17179,-1.51312 c 0.45814,-0.26266 0.22824,-0.96887 -0.29616,-0.90976 -0.27832,0.0314 -0.4678,0.26536 -0.43689,0.53953 0.041,0.36378 0.41491,0.55262 0.73305,0.37023 z m 1.98631,0 c 0.45815,-0.26266 0.22825,-0.96887 -0.29616,-0.90976 -0.27831,0.0314 -0.46779,0.26536 -0.43689,0.53953 0.041,0.36378 0.41491,0.55262 0.73305,0.37023 z m 1.98632,0 c 0.45814,-0.26266 0.22824,-0.96887 -0.29616,-0.90976 -0.27832,0.0314 -0.4678,0.26536 -0.43689,0.53953 0.041,0.36378 0.41491,0.55262 0.73305,0.37023 z m 1.98631,0 c 0.45815,-0.26266 0.22825,-0.96887 -0.29616,-0.90976 -0.27831,0.0314 -0.46779,0.26536 -0.43689,0.53953 0.041,0.36378 0.41491,0.55262 0.73305,0.37023 z m 1.98632,0 c 0.45814,-0.26266 0.22824,-0.96887 -0.29616,-0.90976 -0.27832,0.0314 -0.4678,0.26536 -0.4369,0.53953 0.041,0.36378 0.41491,0.55262 0.73306,0.37023 z m 1.98631,0 c 0.45815,-0.26266 0.22825,-0.96887 -0.29616,-0.90976 -0.27831,0.0314 -0.46779,0.26536 -0.43689,0.53953 0.041,0.36378 0.41491,0.55262 0.73305,0.37023 z m 1.98632,0 c 0.45814,-0.26266 0.22824,-0.96887 -0.29617,-0.90976 -0.27831,0.0314 -0.46779,0.26536 -0.43689,0.53953 0.041,0.36378 0.41491,0.55262 0.73306,0.37023 z m -12.16273,-5.20903 c 0,-1.78021 0.001,-1.80992 0.0701,-1.93275 0.0386,-0.0686 0.12625,-0.1563 0.19486,-0.19487 0.12227,-0.0687 0.15651,-0.0701 1.71889,-0.0701 1.51977,0 1.60009,0.003 1.72175,0.0651 0.0874,0.0446 0.14957,0.11045 0.19732,0.20909 0.0682,0.14095 0.0697,0.18171 0.0697,1.93776 v 1.79379 h -1.98632 -1.98631 z m 7.94526,0 c 0,-1.78021 0.001,-1.80992 0.0701,-1.93275 0.0386,-0.0686 0.12625,-0.1563 0.19486,-0.19487 0.12231,-0.0688 0.15621,-0.0701 1.73544,-0.0701 1.53623,0 1.6166,0.003 1.73831,0.0651 0.0874,0.0446 0.14956,0.11045 0.19731,0.20909 0.0682,0.14095 0.0697,0.18171 0.0697,1.93776 v 1.79379 h -2.00287 -2.00286 z m -1.6949,-0.69867 c -0.43527,-0.43711 -0.70393,-0.73294 -0.73659,-0.8111 -0.0429,-0.10259 -0.0514,-0.30029 -0.0514,-1.18958 0,-0.99392 0.004,-1.07569 0.0653,-1.20112 0.0908,-0.18718 2.05959,-2.14932 2.22619,-2.21866 0.0784,-0.0326 0.22571,-0.0512 0.40554,-0.0512 h 0.28245 v -1.50629 -1.50629 h -1.28065 c -1.21301,0 -1.28787,-0.003 -1.41743,-0.0662 -0.15738,-0.0762 -0.28139,-0.26585 -0.28139,-0.43036 0,-0.15235 0.11953,-0.34472 0.26498,-0.42647 l 0.12475,-0.0701 h 4.09358 c 4.00505,0 4.09635,10e-4 4.2212,0.0651 0.13523,0.069 0.26701,0.28195 0.26701,0.43148 0,0.15783 -0.1285,0.35635 -0.27728,0.42837 -0.13481,0.0653 -0.19609,0.0682 -1.42154,0.0682 h -1.28065 v 1.50629 1.50629 h 0.28246 c 0.17982,0 0.32718,0.0186 0.40554,0.0512 0.16659,0.0693 2.1354,2.03149 2.22619,2.21866 0.0609,0.12547 0.0653,0.20723 0.0653,1.20617 0,0.99992 -0.004,1.08056 -0.0654,1.20616 -0.0394,0.0811 -0.3354,0.40413 -0.74487,0.81295 l -0.67942,0.67836 v -0.71229 -0.71229 l 0.24829,-0.24663 0.24829,-0.24663 v -0.77904 -0.77905 l -0.8527,-0.85222 -0.85269,-0.85222 h -1.78769 -1.78769 l -0.85222,0.8527 -0.85222,0.85269 v 0.77701 0.777 l 0.24897,0.25044 0.24897,0.25044 -0.009,0.70315 -0.009,0.70316 z"
       id="path446" /><path
       style="fill:#222222;stroke-width:0.0397547;fill-opacity:1"
       d="m 163.04372,131.1449 c -0.90732,-0.24359 -1.59484,-0.92813 -1.85577,-1.84774 -0.0684,-0.24093 -0.0723,-0.55473 -0.0723,-5.70137 0,-6.09485 -0.0209,-5.64063 0.28762,-6.26137 0.2075,-0.41754 0.6752,-0.88595 1.08395,-1.08559 0.47755,-0.23325 0.68265,-0.272 1.56268,-0.29526 l 0.78749,-0.0208 0.31251,-0.62411 c 0.35031,-0.69958 0.4629,-0.85522 0.69493,-0.96061 0.14852,-0.0675 0.30268,-0.073 2.04035,-0.0739 2.04973,-9e-4 2.04416,-0.002 2.28858,0.22983 0.0623,0.059 0.26252,0.40459 0.44493,0.76805 l 0.33165,0.66084 0.80735,0.0213 c 0.55553,0.0147 0.87554,0.0407 1.02599,0.0835 0.86709,0.24673 1.57179,0.95071 1.81539,1.81353 0.0692,0.245 0.073,0.54302 0.073,5.74456 v 5.48616 l -0.0927,0.29816 c -0.21537,0.69281 -0.67674,1.24842 -1.28324,1.54537 -0.61529,0.30126 -0.27543,0.28366 -5.42054,0.28074 -3.93697,-0.002 -4.64519,-0.0112 -4.8318,-0.0613 z m 4.35867,-5.09591 c 0.0686,-0.0374 1.13565,-1.06973 2.37115,-2.29418 2.17938,-2.15989 2.24828,-2.23278 2.31107,-2.44492 0.0817,-0.2762 0.0513,-0.50058 -0.0988,-0.72715 -0.20101,-0.30347 -0.58015,-0.4426 -0.94162,-0.34556 -0.17422,0.0468 -0.33302,0.19453 -2.07793,1.93322 -1.03911,1.03542 -1.9073,1.88257 -1.92931,1.88257 -0.022,0 -0.29889,-0.26163 -0.61526,-0.58141 -0.61196,-0.61854 -0.7741,-0.72875 -1.07217,-0.72875 -0.58941,0 -1.00276,0.63203 -0.77318,1.18224 0.0842,0.20176 1.88828,2.01807 2.10496,2.1192 0.20214,0.0944 0.5522,0.0967 0.72112,0.005 z"
       id="path460" /><path
       style="fill:#222222;fill-opacity:1;stroke-width:0.0331056"
       d="m 190.11164,132.31896 c -0.63293,-0.12253 -1.0831,-0.54106 -1.24042,-1.15322 -0.071,-0.27646 -0.072,-1.5445 -0.001,-1.81573 0.0749,-0.28771 0.20341,-0.51278 0.41145,-0.72082 0.61234,-0.61235 1.57792,-0.61235 2.19026,0 0.20804,0.20804 0.33651,0.43311 0.41145,0.72082 0.0711,0.27304 0.0697,1.54024 -0.002,1.81573 -0.13921,0.53474 -0.47414,0.90701 -0.97139,1.07969 -0.18232,0.0633 -0.63527,0.10505 -0.79805,0.0735 z m -4.96584,-2.03508 c -0.76653,-0.1497 -1.32965,-0.97678 -1.19804,-1.75964 0.0715,-0.42506 0.18826,-0.60888 0.7482,-1.17748 0.27465,-0.2789 0.57546,-0.5576 0.66846,-0.61933 0.6262,-0.41564 1.35871,-0.36269 1.89872,0.13726 0.55698,0.51567 0.68815,1.2263 0.34544,1.87143 -0.13684,0.25758 -1.11779,1.24821 -1.36816,1.38166 -0.34575,0.18428 -0.71478,0.24028 -1.09462,0.1661 z m 9.73676,-0.016 c -0.35779,-0.0962 -0.53081,-0.22204 -1.10853,-0.80611 -0.48429,-0.48961 -0.56306,-0.58475 -0.66921,-0.80828 -0.22203,-0.46753 -0.19014,-1.01501 0.0838,-1.43789 0.39131,-0.60418 1.061,-0.88592 1.70631,-0.71784 0.34519,0.0899 0.52957,0.22356 1.1129,0.80667 0.4367,0.43655 0.57035,0.59167 0.65063,0.75518 0.44264,0.90158 -0.0567,1.98227 -1.02102,2.20957 -0.26263,0.0619 -0.52147,0.0615 -0.75484,-0.001 z m -11.8109,-4.89431 c -0.43188,-0.10476 -0.78661,-0.38685 -0.9849,-0.78321 -0.46089,-0.92126 0.0269,-1.99911 1.00957,-2.23074 0.25131,-0.0592 1.43784,-0.0711 1.72202,-0.0172 0.71608,0.1358 1.25267,0.78771 1.25401,1.52349 0.001,0.69888 -0.47813,1.3308 -1.14043,1.50326 -0.25134,0.0654 -1.59545,0.0686 -1.86027,0.004 z m 12.73494,-0.006 c -0.35042,-0.0942 -0.71617,-0.37853 -0.91825,-0.71392 -0.25188,-0.41804 -0.27726,-0.98645 -0.0641,-1.43532 0.21205,-0.44652 0.64708,-0.7899 1.11021,-0.87634 0.28645,-0.0535 1.47198,-0.0413 1.72217,0.0177 0.45483,0.10721 0.84132,0.41402 1.03016,0.81777 0.43195,0.92354 -0.0841,2.00444 -1.05354,2.2066 -0.26799,0.0559 -1.60213,0.0439 -1.82665,-0.0165 z m -9.96559,-4.1329 c -0.34115,-0.0958 -0.47125,-0.18787 -1.00593,-0.71163 -0.28925,-0.28334 -0.58369,-0.60348 -0.65433,-0.71141 -0.41032,-0.62703 -0.32516,-1.38487 0.21617,-1.92372 0.55628,-0.55373 1.31969,-0.62701 1.96162,-0.18829 0.27012,0.18461 1.13409,1.07605 1.24489,1.28446 0.55819,1.04995 -0.19928,2.30811 -1.3817,2.29501 -0.12746,-10e-4 -0.29878,-0.0214 -0.38072,-0.0444 z m 8.25805,6.3e-4 c -1.00565,-0.33116 -1.44684,-1.4607 -0.90612,-2.31989 0.13115,-0.2084 1.02248,-1.11275 1.2251,-1.243 0.34158,-0.21958 0.76236,-0.2995 1.14824,-0.21808 1.04284,0.22001 1.56426,1.3345 1.06373,2.2736 -0.0727,0.13638 -0.25876,0.34593 -0.65637,0.73922 -0.49539,0.49001 -0.58299,0.56224 -0.81658,0.67324 -0.24224,0.11511 -0.28624,0.12488 -0.59272,0.13172 -0.2066,0.005 -0.38152,-0.009 -0.46528,-0.0368 z m -4.09937,-1.70912 c -0.57336,-0.14375 -1.02285,-0.60933 -1.14259,-1.18349 -0.0575,-0.2757 -0.0474,-1.54024 0.0142,-1.77664 0.15625,-0.59989 0.64676,-1.04557 1.2652,-1.14953 0.79769,-0.13411 1.59748,0.41789 1.76338,1.21706 0.0246,0.11856 0.0333,0.45177 0.0249,0.95077 -0.0117,0.69093 -0.0204,0.78823 -0.0861,0.96688 -0.15513,0.42169 -0.48166,0.75575 -0.89189,0.91246 -0.21557,0.0824 -0.73192,0.11642 -0.94703,0.0625 z"
       id="path3552" /></g></svg>
